<svg xmlns="http://www.w3.org/2000/svg" width="1920" viewBox="0 0 1440 810" height="1080" version="1.0"><defs><clipPath id="a"><path d="M382 32.023h676V404H382zm0 0"/></clipPath></defs><path d="M1040.766 171.754a33.78 33.78 0 0116.632 29.105v385.907a33.778 33.778 0 01-18.464 30.109l-303.72 154.36a33.732 33.732 0 01-32.933-1.325 33.771 33.771 0 01-16.097-28.781V369.69a33.764 33.764 0 0117.359-29.515l303.719-168.836a33.738 33.738 0 0133.504.414zm-287.09 217.809v296.542l236.23-120.062V258.246zm0 0" fill-rule="evenodd"/><g clip-path="url(#a)"><path d="M706.227 34.934a33.737 33.737 0 0127.41 0L1037.355 170a33.761 33.761 0 0120.008 29.36 33.756 33.756 0 01-17.324 31.015L736.316 399.211a33.73 33.73 0 01-32.773 0L399.82 230.375a33.763 33.763 0 01-17.324-31.016A33.768 33.768 0 01402.504 170zM491.742 204.219L719.93 331.066 948.117 204.22 719.93 102.742zm0 0" fill-rule="evenodd"/></g><path d="M399.094 171.754a33.78 33.78 0 00-16.633 29.105v385.907a33.778 33.778 0 0018.465 30.109l303.719 154.36a33.73 33.73 0 0032.933-1.325 33.771 33.771 0 0016.098-28.781V369.69a33.764 33.764 0 00-17.36-29.515L432.598 171.34a33.738 33.738 0 00-33.504.414zm287.09 217.809v296.542L449.957 566.043V258.246zm0 0" fill-rule="evenodd"/></svg>