<svg xmlns="http://www.w3.org/2000/svg" xmlns:xlink="http://www.w3.org/1999/xlink" width="500" zoomAndPan="magnify" viewBox="0 0 375 374.999991" height="500" preserveAspectRatio="xMidYMid meet" version="1.0"><defs><clipPath id="4ae1e97887"><path d="M 0 2.023438 L 372.75 2.023438 L 372.75 374.773438 L 0 374.773438 Z M 0 2.023438 " clip-rule="nonzero"/></clipPath></defs><g clip-path="url(#4ae1e97887)"><path fill="#0277b5" d="M 341.609375 2.023438 L 31.328125 2.023438 C 14.171875 2.023438 0.371094 16.007812 0.371094 32.976562 L 0.371094 343.820312 C 0.371094 360.976562 14.359375 374.773438 31.328125 374.773438 L 341.421875 374.773438 C 358.578125 374.773438 372.378906 360.789062 372.378906 343.820312 L 372.378906 32.976562 C 372.5625 16.007812 358.765625 2.023438 341.609375 2.023438 Z M 110.574219 309.511719 L 55.566406 309.511719 L 55.566406 144.300781 L 110.574219 144.300781 Z M 82.976562 124.347656 C 65.636719 124.347656 51.652344 110.363281 51.652344 93.019531 C 51.652344 75.679688 65.636719 61.695312 82.976562 61.695312 C 100.320312 61.695312 114.304688 75.679688 114.304688 93.019531 C 114.304688 110.363281 100.320312 124.347656 82.976562 124.347656 Z M 317.554688 309.511719 L 262.359375 309.511719 L 261.054688 211.425781 C 261.054688 211.425781 262.359375 185.320312 233.832031 185.507812 C 205.300781 185.695312 201.386719 211.425781 201.386719 211.425781 L 201.386719 309.511719 L 145.816406 309.511719 L 145.816406 144.300781 L 199.148438 144.300781 L 199.148438 167.046875 C 199.148438 167.046875 201.386719 159.589844 213.691406 150.824219 C 226 142.0625 246.324219 140.195312 255.089844 140.570312 C 263.851562 140.941406 275.785156 139.449219 295.738281 153.25 C 317.183594 167.980469 317.742188 206.578125 317.742188 206.578125 Z M 317.554688 309.511719 " fill-opacity="1" fill-rule="nonzero"/></g></svg>