<svg xmlns="http://www.w3.org/2000/svg" xmlns:xlink="http://www.w3.org/1999/xlink" width="500" zoomAndPan="magnify" viewBox="0 0 375 374.999991" height="500" preserveAspectRatio="xMidYMid meet" version="1.0"><defs><clipPath id="7be059b55d"><path d="M 3.273438 141.445312 L 371.523438 141.445312 L 371.523438 233.695312 L 3.273438 233.695312 Z M 3.273438 141.445312 " clip-rule="nonzero"/></clipPath></defs><g clip-path="url(#7be059b55d)"><path fill="#000000" d="M 49.308594 141.445312 C 23.878906 141.445312 3.28125 162.085938 3.28125 187.570312 C 3.28125 213.050781 23.878906 233.695312 49.308594 233.695312 C 74.742188 233.695312 95.339844 213.050781 95.339844 187.570312 C 95.339844 162.085938 74.742188 141.445312 49.308594 141.445312 Z M 325.488281 141.445312 C 300.054688 141.445312 279.457031 162.085938 279.457031 187.570312 C 279.457031 213.050781 300.054688 233.695312 325.488281 233.695312 C 350.917969 233.695312 371.519531 213.050781 371.519531 187.570312 C 371.519531 162.085938 350.917969 141.445312 325.488281 141.445312 Z M 187.398438 141.445312 C 161.96875 141.445312 141.367188 162.085938 141.367188 187.570312 C 141.367188 213.050781 161.96875 233.695312 187.398438 233.695312 C 212.832031 233.695312 233.429688 213.050781 233.429688 187.570312 C 233.429688 162.085938 212.832031 141.445312 187.398438 141.445312 Z M 187.398438 141.445312 " fill-opacity="1" fill-rule="nonzero"/></g></svg>