<svg xmlns="http://www.w3.org/2000/svg" xmlns:xlink="http://www.w3.org/1999/xlink" width="500" zoomAndPan="magnify" viewBox="0 0 375 374.999991" height="500" preserveAspectRatio="xMidYMid meet" version="1.0"><path fill="#d42428" d="M 0 186.648438 C 0 83.582031 83.582031 0 186.648438 0 C 289.714844 0 373.292969 83.582031 373.292969 186.648438 C 373.292969 289.714844 289.714844 373.292969 186.648438 373.292969 C 83.582031 373.292969 0 289.714844 0 186.648438 Z M 0 186.648438 " fill-opacity="1" fill-rule="nonzero"/><path fill="#cc202d" d="M 318.601562 54.691406 C 391.5 127.589844 391.5 245.777344 318.601562 318.601562 C 245.703125 391.5 127.515625 391.5 54.691406 318.601562 Z M 318.601562 54.691406 " fill-opacity="1" fill-rule="nonzero"/><path fill="#ba202e" d="M 369.53125 224.035156 L 277.148438 131.652344 L 168.214844 144.066406 L 102.3125 246.078125 L 225.464844 369.230469 C 297.835938 353.882812 354.789062 296.632812 369.53125 224.035156 " fill-opacity="1" fill-rule="nonzero"/><path fill="#ffffff" d="M 284.296875 150.613281 C 284.296875 134.964844 271.65625 122.324219 256.007812 122.324219 L 123.152344 122.324219 C 107.503906 122.324219 94.867188 135.039062 94.867188 150.613281 L 94.867188 226.59375 C 94.867188 242.242188 107.503906 254.957031 123.152344 254.957031 L 255.933594 254.957031 C 271.582031 254.957031 284.222656 242.242188 284.222656 226.59375 L 284.222656 150.613281 Z M 170.621094 220.652344 L 170.621094 149.332031 L 224.714844 184.992188 Z M 170.621094 220.652344 " fill-opacity="1" fill-rule="evenodd"/></svg>